<svg width="1200" height="800" viewBox="0 0 1200 800" xmlns="http://www.w3.org/2000/svg" role="img" aria-label="Abstract Website Layers Illustration">
  <defs>
    <linearGradient id="grad1" x1="0%" y1="0%" x2="100%" y2="100%">
      <stop offset="0%" stop-color="#F9FAFB"/>
      <stop offset="100%" stop-color="#F3F4F6"/>
    </linearGradient>
    <linearGradient id="accentGrad" x1="0%" y1="0%" x2="100%" y2="100%">
      <stop offset="0%" stop-color="#3A8EF6"/>
      <stop offset="100%" stop-color="#8AB6FF"/>
    </linearGradient>
    <filter id="softShadow" x="-20%" y="-20%" width="140%" height="140%">
      <feDropShadow dx="4" dy="8" stdDeviation="12" flood-color="#D1D5DB" flood-opacity="0.3"/>
    </filter>
  </defs>

  <!-- Background -->
  <rect width="1200" height="800" fill="url(#grad1)"/>

  <!-- Layer 3 (Back) -->
  <g transform="translate(300, 200) rotate(-5)" filter="url(#softShadow)">
    <rect width="600" height="400" rx="24" fill="white" stroke="#E5E7EB" stroke-width="2"/>
    <rect x="20" y="20" width="120" height="12" rx="6" fill="#E5E7EB"/>
    <rect x="20" y="50" width="560" height="24" rx="8" fill="#F3F4F6"/>
    <rect x="20" y="90" width="560" height="290" rx="8" fill="#F9FAFB"/>
  </g>

  <!-- Layer 2 (Middle) -->
  <g transform="translate(350, 250) rotate(3)" filter="url(#softShadow)">
    <rect width="500" height="300" rx="20" fill="rgba(255,255,255,0.8)" stroke="#D1D5DB" stroke-width="1.5" style="backdrop-filter: blur(4px);"/>
    <rect x="20" y="20" width="80" height="10" rx="5" fill="#D1D5DB"/>
    <rect x="20" y="45" width="460" height="20" rx="7" fill="#E5E7EB"/>
    <rect x="20" y="80" width="220" height="200" rx="7" fill="#F3F4F6"/>
    <rect x="260" y="80" width="220" height="200" rx="7" fill="#F3F4F6"/>
  </g>

  <!-- Layer 1 (Front) -->
  <g transform="translate(400, 300)" filter="url(#softShadow)">
    <rect width="400" height="200" rx="16" fill="white" stroke="url(#accentGrad)" stroke-width="3"/>
    <rect x="20" y="20" width="100" height="12" rx="6" fill="url(#accentGrad)"/>
    <rect x="20" y="50" width="360" height="130" rx="8" fill="#F9FAFB"/>
  </g>
</svg>
